Coordinates
version=1
nRows=30
nColumns=19
inDegrees=yes

Units are S.I. units (second, meters, Newtons, ...)
If the header above contains a line with 'inDegrees', this indicates whether rotational values are in degrees (yes) or radians (no).

endheader
time	pelvis_tilt	pelvis_list	pelvis_rotation	pelvis_tx	pelvis_ty	pelvis_tz	hip_flexion_r	hip_adduction_r	hip_rotation_r	knee_angle_r	knee_angle_r_beta	ankle_angle_r	hip_flexion_l	hip_adduction_l	hip_rotation_l	knee_angle_l	knee_angle_l_beta	ankle_angle_l
     13.41333333	     -5.00067967	      6.60971531	     -0.19165728	      2.35780395	      1.07457717	      1.01612114	     -8.67908600	     -8.38699910	     -5.96836816	     39.32170595	      0.68629324	    -16.73330010	     23.28087736	      7.59210750	    -14.38108289	     12.69067468	      0.22149406	     -5.82916995
     13.42000000	     -4.58149950	      7.19013048	     -0.04612506	      2.35785667	      1.07129362	      1.01582179	     -8.44153559	     -9.24561355	     -5.95021402	     41.67007973	      0.72728009	    -15.65255018	     22.86872489	      8.40386977	    -14.34333222	     13.37454746	      0.23342989	     -5.75303273
     13.42666667	     -4.15832338	      7.74351794	      0.12720363	      2.35778002	      1.06764772	      1.01554356	     -8.14924102	    -10.05431819	     -5.87957997	     44.06456021	      0.76907166	    -14.62250189	     22.54090989	      9.14249841	    -14.30513865	     14.52111297	      0.25344123	     -5.37365580
     13.43333333	     -3.62305751	      8.26889730	      0.32399034	      2.35763129	      1.06376065	      1.01532324	     -7.94321946	    -10.78213526	     -5.72901123	     46.46203871	      0.81091555	    -13.55004188	     22.12367324	      9.84383209	    -14.11497626	     15.99460325	      0.27915849	     -4.57029953
     13.44000000	     -3.78130025	      8.67277907	      0.43959113	      2.35707263	      1.05871917	      1.01516529	     -6.72654853	    -11.41353131	     -5.28128708	     49.15733399	      0.85795733	    -12.66313869	     22.65813385	     10.25413574	    -14.31465361	     18.07082519	      0.31539540	     -3.53551992
     13.44666667	     -3.52132966	      9.04890491	      0.61490757	      2.35651473	      1.05387966	      1.01505028	     -5.99708385	    -11.96014348	     -4.91223388	     51.72740879	      0.90281360	    -11.78438173	     22.66752409	     10.69328813	    -14.25442320	     20.21174838	      0.35276156	     -2.06620004
     13.45333333	     -3.35316444	      9.37745660	      0.76687470	      2.35584261	      1.04868940	      1.01505912	     -5.07572552	    -12.43074087	     -4.42829535	     54.32957201	      0.94822991	    -10.99292524	     22.76992493	     11.05099624	    -14.20238289	     22.50124769	      0.39272086	     -0.23736994
     13.46000000	     -2.60866250	      9.81811333	      0.92268828	      2.35509878	      1.04405729	      1.01517702	     -4.81303141	    -13.00479290	     -4.10616833	     56.80058249	      0.99135718	    -10.12315835	     22.08822250	     11.60483644	    -13.92216537	     24.55942404	      0.42864281	      1.86552391
     13.46666667	     -2.14251368	     10.06652870	      1.05981588	      2.35400768	      1.03889854	      1.01538795	     -4.09470986	    -13.36929592	     -3.66566477	     59.36942453	      1.03619193	     -9.24479187	     21.82079136	     11.83546095	    -13.94390466	     26.94118476	      0.47021238	      4.11397496
     13.47333333	     -2.60697902	      9.94775225	      1.10389665	      2.35240217	      1.03275949	      1.01583662	     -2.06642899	    -13.24565671	     -2.68471871	     62.14367327	      1.08461171	     -8.40306901	     22.62777667	     11.60089153	    -13.97308359	     29.45646195	      0.51411225	      6.48948382
     13.48000000	     -2.39901458	     10.05177021	      1.20331269	      2.35086105	      1.02743927	      1.01630422	     -0.86084073	    -13.38665061	     -2.05174887	     64.71393008	      1.12947115	     -7.51682571	     22.54195842	     11.67622186	    -13.85079378	     31.67153228	      0.55277252	      8.89902447
     13.48666667	     -2.19846117	     10.11062224	      1.28508462	      2.34909122	      1.02225912	      1.01688429	      0.43105795	    -13.46183470	     -1.40089397	     67.24000164	      1.17355942	     -6.56832757	     22.42819239	     11.69222047	    -13.70412802	     33.80162510	      0.58994965	     11.23225860
     13.49333333	     -1.94387554	     10.12539832	      1.35609687	      2.34718260	      1.01742541	      1.01753922	      1.72120871	    -13.47713812	     -0.76487933	     69.67718717	      1.21609633	     -5.66337510	     22.17394400	     11.65924940	    -13.51293722	     35.75670676	      0.62407226	     13.49179954
     13.50000000	     -1.71722235	     10.14022749	      1.41960904	      2.34511710	      1.01283384	      1.01818965	      3.10663970	    -13.49791287	     -0.14357082	     72.04159363	      1.25736301	     -4.73680961	     21.89967538	     11.63441421	    -13.27886306	     37.58202790	      0.65593013	     15.54777778
     13.50666667	     -1.52821788	     10.14234413	      1.46210274	      2.34300968	      1.00855142	      1.01890528	      4.57842710	    -13.49356205	      0.48966524	     74.30010976	      1.29678155	     -3.72591952	     21.58771749	     11.59169714	    -13.01990544	     39.23722693	      0.68481880	     17.38561222
     13.51333333	     -0.79585565	     10.26000075	      1.55755146	      2.34085409	      1.00542212	      1.01946370	      5.41047113	    -13.69011352	      0.84373486	     76.31136323	      1.33188454	     -3.00695264	     20.52784858	     11.77723654	    -12.47248435	     40.55207529	      0.70776723	     18.80265822
     13.52000000	     -0.26383703	     10.28531841	      1.60843116	      2.33893060	      1.00235858	      1.02000324	      6.48040604	    -13.82613501	      1.18918434	     78.20182247	      1.36487928	     -1.93752188	     19.58481771	     11.78730332	    -12.14700626	     41.73924888	      0.72848732	     20.37746435
     13.52666667	     -0.73761498	     10.16477133	      1.42774378	      2.33675649	      0.99857264	      1.02084790	      8.92816549	    -13.65801102	      2.11888876	     80.17134492	      1.39925393	     -0.95088004	     19.75628585	     11.51872070	    -12.16127138	     42.88709966	      0.74852110	     21.63075088
     13.53333333	     -0.33460460	     10.14810769	      1.44790543	      2.33491157	      0.99644669	      1.02130891	     10.18547762	    -13.73881501	      2.47693946	     81.71950189	      1.42627437	     -0.07266076	     18.71503145	     11.52365277	    -11.75592135	     43.60993040	      0.76113687	     22.68063039
     13.54000000	      0.08470032	     10.07397964	      1.51328028	      2.33307680	      0.99490575	      1.02168625	     11.40670095	    -13.74767803	      2.76308457	     83.06226828	      1.44971007	      0.60368732	     17.53905605	     11.49989089	    -11.24525882	     44.12973809	      0.77020923	     23.44995147
     13.54666667	     -0.16119129	     10.09497615	      1.25261421	      2.33156455	      0.99302537	      1.02229139	     13.52056963	    -13.83003498	      3.46606210	     84.34009766	      1.47201240	      1.49047607	     16.94920311	     11.43157379	    -11.34305184	     44.35717871	      0.77417882	     24.28805601
     13.55333333	      0.05238893	      9.90149494	      1.36345232	      2.33010049	      0.99238711	      1.02249024	     14.88143556	    -13.72219780	      3.61686731	     85.23534955	      1.48763749	      2.16154865	     15.71028806	     11.31732055	    -10.80562476	     44.40453272	      0.77500530	     24.86933222
     13.56000000	      0.08233164	      9.68766883	      1.45338308	      2.32900163	      0.99213628	      1.02262011	     16.38544902	    -13.61405991	      3.72679191	     85.89464432	      1.49914435	      2.89570042	     14.50028921	     11.16408606	    -10.38469632	     44.15589456	      0.77066574	     25.43262752
     13.56666667	     -0.00505797	      9.45447326	      1.55212430	      2.32802940	      0.99226442	      1.02271821	     17.97481173	    -13.49044270	      3.78361482	     86.34030486	      1.50692260	      3.53399694	     13.31376514	     10.98734439	    -10.00223142	     43.71181037	      0.76291501	     25.79512058
     13.57333333	     -0.19905602	      9.20360285	      1.68332771	      2.32717004	      0.99279354	      1.02280408	     19.61952283	    -13.33742054	      3.78037374	     86.57034471	      1.51093755	      4.12771030	     12.14891673	     10.80539225	     -9.59688704	     43.09191858	      0.75209586	     26.01775825
     13.58000000	     -0.49511137	      8.90453950	      1.87259785	      2.32652473	      0.99377980	      1.02277388	     21.27593881	    -13.14267752	      3.67256054	     86.54849534	      1.51055621	      4.69886611	     10.99120269	     10.60313264	     -9.11228942	     42.27619284	      0.73785876	     26.09448372
     13.58666667	     -0.85720480	      8.51229543	      2.11815173	      2.32616631	      0.99521444	      1.02267125	     22.87618057	    -12.90073972	      3.37096740	     86.26196470	      1.50555530	      5.21515015	      9.81997189	     10.26037661	     -8.71816305	     41.31584754	      0.72109757	     25.98816894
     13.59333333	     -1.16353960	      8.11685001	      2.58908796	      2.32595019	      0.99728853	      1.02227669	     24.23313160	    -12.71823341	      2.82904959	     85.70502078	      1.49583480	      5.74907500	      8.49412156	     10.04266004	     -7.82029372	     40.15908341	      0.70090823	     25.68184463
     13.60000000	     -1.66254685	      7.60902508	      2.87184617	      2.32596520	      0.99950575	      1.02219324	     25.77063580	    -12.33020118	      2.39472335	     84.93486470	      1.48239304	      6.21929950	      7.38527298	      9.58154068	     -7.34577047	     38.97422961	      0.68022863	     25.16982167
     13.60666667	     -2.18434487	      7.10464174	      3.17591360	      2.32616022	      1.00204087	      1.02205073	     27.24160289	    -11.99423219	      1.85109396	     83.96923639	      1.46553965	      6.66062023	      6.26984741	      9.10927346	     -6.90187487	     37.69289070	      0.65786505	     24.46651106
